<svg id="Calque_1" data-name="Calque 1" xmlns="http://www.w3.org/2000/svg" viewBox="0 0 136.73 25"><defs><style>.cls-1{fill:#75dab4;}.cls-2{fill:#fff;}</style></defs><path class="cls-1" d="M23,11v4.79a10.07,10.07,0,0,1-1.11,4.81,7.75,7.75,0,0,1-3.12,3.22A9.48,9.48,0,0,1,14.12,25a10,10,0,0,1-4.73-1.07,7.69,7.69,0,0,1-3.17-3A9,9,0,0,1,5.1,16.33V9.1A10,10,0,0,1,6.21,4.3,7.78,7.78,0,0,1,9.33,1.09,9.38,9.38,0,0,1,14,0a9.17,9.17,0,0,1,4,.9,8.6,8.6,0,0,1,3.09,2.56,9.52,9.52,0,0,1,1.68,3.82h-5A3.25,3.25,0,0,0,17,5.89,4,4,0,0,0,15.64,5,4.7,4.7,0,0,0,14,4.74a4.22,4.22,0,0,0-2.16.54A3.69,3.69,0,0,0,10.4,6.81,5,5,0,0,0,9.89,9.1v7.23a3.85,3.85,0,0,0,.52,2,3.52,3.52,0,0,0,1.48,1.35,5,5,0,0,0,2.23.47,4.5,4.5,0,0,0,2.18-.51,3.54,3.54,0,0,0,1.44-1.5,5,5,0,0,0,.5-2.3v-.41h-3.7V11Z" transform="translate(-5.1 0.05)"/><polygon class="cls-1" points="65.34 0.14 65.34 24.86 61.14 24.86 61.14 7.32 56.63 22.11 52.55 22.11 48.04 7.64 48.04 24.86 43.84 24.86 43.84 0.14 49.92 0.14 54.59 16.8 59.26 0.14 65.34 0.14"/><polygon class="cls-1" points="71.96 4.7 71.96 10.36 81.89 10.36 81.89 14.8 71.96 14.8 71.96 20.3 83.75 20.3 83.75 24.75 67.34 24.75 67.34 0.26 83.75 0.26 83.75 4.7 71.96 4.7"/><path class="cls-1" d="M103.53,14.61a6.16,6.16,0,0,0,1.61-.67,6,6,0,0,0,2.38-2.57,8.4,8.4,0,0,0,.84-3.85,8.43,8.43,0,0,0-.84-3.85,6.12,6.12,0,0,0-2.37-2.56A6.83,6.83,0,0,0,101.59.2H90.86V24.71h4.62V14.85h2.8l5.52,9.86h5.59Zm-8-10h5.74a2.22,2.22,0,0,1,1.26.36,2.28,2.28,0,0,1,.84,1,3.77,3.77,0,0,1,.29,1.51A3.78,3.78,0,0,1,103.3,9a2.26,2.26,0,0,1-.83,1,2.2,2.2,0,0,1-1.25.35H95.48Z" transform="translate(-5.1 0.05)"/><polygon class="cls-1" points="122.69 20.3 122.69 24.75 106.28 24.75 106.28 0.26 110.89 0.26 110.89 20.3 122.69 20.3"/><path class="cls-1" d="M134.62,15.25V24.7H130V15.25L122.8.21h4.83l4.68,10.54L137,.21h4.83Z" transform="translate(-5.1 0.05)"/><rect class="cls-1" x="19.92" y="0.14" width="21.92" height="24.71" rx="3.67"/><path class="cls-2" d="M28,15.64c0-1.48,0-3,0-4.44a7.54,7.54,0,0,1,5.83-7.52A7.89,7.89,0,0,1,43.76,9.2,9.37,9.37,0,0,1,44,11.51v8.88a1,1,0,0,1-.49,1c-.47.23-.79-.06-1.08-.35A3.72,3.72,0,0,0,40.76,20a2.71,2.71,0,0,0-2.38.51,3.44,3.44,0,0,1-4.71,0c-1.27-.94-2.28-.8-3.53.17-.23.18-.45.36-.69.53a.85.85,0,0,1-1,.18.92.92,0,0,1-.48-.92c0-1.61,0-3.23,0-4.85Zm4.8-5.32a1.54,1.54,0,0,0-1.6,1.57,1.61,1.61,0,1,0,3.21,0A1.55,1.55,0,0,0,32.81,10.32Zm6.4,0a1.53,1.53,0,0,0-1.58,1.57,1.6,1.6,0,1,0,3.2,0A1.54,1.54,0,0,0,39.21,10.32Z" transform="translate(-5.1 0.05)"/></svg>